<svg width="125" height="40" viewBox="0 0 125 40" fill="none" xmlns="http://www.w3.org/2000/svg">
<path fill-rule="evenodd" clip-rule="evenodd" d="M30.8302 16.4674C30.8297 16.4962 30.829 16.5321 30.8282 16.5548H30.8318C30.8318 16.3781 30.8313 16.4079 30.8302 16.4674ZM30.8253 16.5548C30.8264 16.5887 30.8273 16.5797 30.8282 16.5548H30.8253ZM15.8724 31.0742C15.8465 31.0733 15.8373 31.0725 15.8724 31.0713C15.903 31.0704 15.9666 31.0693 16.0822 31.0681C20.3737 31.0235 24.0422 29.6591 26.6684 27.153C29.2961 24.6449 30.8229 21.051 30.8229 16.5548H30.8253C30.8241 16.5246 30.8229 16.4609 30.8217 16.3449L30.7973 14.1501H28.5626H15.9972V18.5739H26.1593C25.8175 20.8542 24.8842 22.6835 23.4965 24.0078C21.7186 25.7046 19.1373 26.6293 16.0466 26.6614C15.8424 26.6636 15.8776 26.6627 15.9482 26.6609H15.9482H15.9483C16.0492 26.6583 16.2224 26.6539 15.8724 26.6539C12.7267 26.6539 9.8957 25.4154 7.85265 23.4133C5.80068 21.4026 4.53633 18.6162 4.53633 15.5336C4.53633 12.4522 5.80038 9.66899 7.85116 7.66058C9.89392 5.66029 12.7255 4.42377 15.8724 4.42377C17.3561 4.42377 18.7711 4.69884 20.0673 5.19942C21.4211 5.72203 22.6429 6.48406 23.6758 7.43043L26.7766 4.21623C25.3191 2.88087 23.611 1.81159 21.7329 1.08638C19.9169 0.385507 17.9395 0 15.8724 0C11.4802 0 7.51561 1.73826 4.64422 4.55015C1.77104 7.36348 -6.10352e-05 11.2472 -6.10352e-05 15.5336C-6.10352e-05 19.82 1.77134 23.7072 4.6454 26.5238C7.5165 29.3374 11.4804 31.0777 15.8724 31.0777C16.061 31.0777 16.0294 31.0772 15.966 31.0761C15.9351 31.0756 15.8965 31.075 15.8724 31.0742ZM42.7788 15.1068C44.4075 15.1068 45.8805 15.7697 46.9452 16.8413C48.0113 17.9146 48.6708 19.4051 48.6708 21.0584C48.6708 22.7117 48.0113 24.2024 46.9452 25.2755C45.8805 26.3471 44.4075 27.01 42.7788 27.01C41.1498 27.01 39.6768 26.3471 38.6121 25.2755C37.546 24.2024 36.8865 22.7117 36.8865 21.0584C36.8865 19.4051 37.546 17.9146 38.6121 16.8413C39.6768 15.7697 41.1498 15.1068 42.7788 15.1068ZM50.06 14.0453C48.1949 12.2433 45.6205 11.1285 42.7788 11.1285C39.9371 11.1285 37.3624 12.2433 35.4973 14.0453C33.6338 15.8459 32.4812 18.3259 32.4812 21.0584C32.4812 23.7908 33.6338 26.2708 35.4973 28.0714C37.3624 29.8737 39.9371 30.9882 42.7788 30.9882C45.6205 30.9882 48.1949 29.8737 50.06 28.0714C51.9238 26.2708 53.0764 23.7908 53.0764 21.0584C53.0764 18.3259 51.9238 15.8459 50.06 14.0453ZM69.0927 16.8413C68.0281 15.7697 66.5551 15.1068 64.9264 15.1068C63.2973 15.1068 61.8243 15.7697 60.7597 16.8413C59.6939 17.9146 59.0344 19.4051 59.0344 21.0584C59.0344 22.7117 59.6939 24.2024 60.7597 25.2755C61.8243 26.3471 63.2973 27.01 64.9264 27.01C66.5551 27.01 68.0281 26.3471 69.0927 25.2755C70.1588 24.2024 70.8184 22.7117 70.8184 21.0584C70.8184 19.4051 70.1588 17.9146 69.0927 16.8413ZM64.9264 11.1285C67.768 11.1285 70.3425 12.2433 72.2078 14.0453C74.0714 15.8459 75.224 18.3259 75.224 21.0584C75.224 23.7908 74.0714 26.2708 72.2078 28.0714C70.3425 29.8737 67.768 30.9882 64.9264 30.9882C62.0847 30.9882 59.5102 29.8737 57.6449 28.0714C55.7814 26.2708 54.6285 23.7908 54.6285 21.0584C54.6285 18.3259 55.7814 15.8459 57.6449 14.0453C59.5102 12.2433 62.0847 11.1285 64.9264 11.1285ZM86.8977 15.1068C88.4492 15.1068 89.8523 15.7697 90.8664 16.8413C91.882 17.9146 92.51 19.4051 92.51 21.0584C92.51 22.7117 91.882 24.2024 90.8664 25.2755C89.8523 26.3471 88.4492 27.1193 86.8977 27.1193C83.5951 27.1193 81.2854 24.3995 81.2854 21.0584C81.2854 19.4051 81.9134 17.9146 82.929 16.8413C83.9431 15.7697 85.346 15.1068 86.8977 15.1068ZM92.0838 13.4169C90.5728 11.9879 88.8914 11.1285 86.119 11.1285C81.4762 11.1285 76.8022 15.5393 76.8022 21.0584C76.8022 23.7908 77.8452 26.2708 79.5313 28.0714C81.2188 29.8737 83.9791 30.9882 86.55 30.9882C88.81 30.9882 90.5496 30.1271 92.0838 28.6949V30.8688C92.0838 34.0897 89.372 36.0445 87.2104 36.0445C84.1592 36.0445 82.5278 34.8291 81.4346 32.4703L77.5735 34.1674C78.4937 36.1532 79.835 37.563 81.4073 38.5068C83.1745 39.5677 85.1965 39.9462 87.2104 39.9462C89.4157 39.9462 91.6433 39.0387 93.3015 37.6007C95.023 36.1079 96.2942 33.2462 96.2942 30.6077V11.6885H92.0838V13.4169ZM99.0162 30.4193H103.364V1.27838H99.0162V30.4193ZM120.458 24.3786C118.172 28.0931 112.142 28.0493 110.43 24.0731C113.065 23.0385 115.692 21.9916 118.319 20.9447C120.272 20.1663 122.225 19.388 124.181 18.6148C122.663 14.8012 120.587 12.607 118.03 11.7012C114.092 10.3064 110.275 11.6067 107.8 14.1641C104.766 17.2992 103.83 23.9122 108.207 28.2221C109.999 29.9858 112.396 31.0745 115.375 31.0713C118.721 31.0534 121.792 29.6424 123.9 26.629L120.458 24.3786ZM118.997 17.0754L109.738 20.7119C109.602 18.7995 110.656 17.1073 111.86 16.116C114.989 14.0339 117.363 15.0261 118.997 17.0754Z" fill="#969696"/>
</svg>
